<?xml version="1.0" standalone="no"?>
<!DOCTYPE svg PUBLIC "-//W3C//DTD SVG 20010904//EN"
 "http://www.w3.org/TR/2001/REC-SVG-20010904/DTD/svg10.dtd">
<svg version="1.0" xmlns="http://www.w3.org/2000/svg"
 width="300.000000pt" height="450.000000pt" viewBox="0 0 300.000000 450.000000"
 preserveAspectRatio="xMidYMid meet">
<metadata>
Created by potrace 1.10, written by Peter Selinger 2001-2011
</metadata>
<g transform="translate(0.000000,450.000000) scale(0.100000,-0.100000)"
fill="#000000" stroke="none">
<path d="M1955 3448 c-11 -6 -44 -34 -73 -62 -43 -42 -54 -48 -62 -36 -5 8
-10 24 -10 36 0 26 -40 64 -67 64 -37 0 -168 -118 -258 -233 -28 -35 -32 -37
-58 -28 -21 8 -47 7 -105 -5 -250 -51 -465 -166 -642 -344 -132 -132 -280
-346 -296 -428 -10 -50 18 -40 45 16 51 107 176 278 275 378 165 166 342 266
572 325 176 44 184 39 63 -34 -131 -79 -194 -125 -291 -217 -171 -159 -302
-376 -360 -595 -29 -111 -29 -297 1 -410 24 -89 88 -227 150 -323 25 -39 36
-62 27 -60 -8 2 -52 32 -97 68 -126 99 -194 193 -245 335 -13 38 -17 80 -17
175 0 106 4 138 27 213 28 93 80 204 128 275 16 23 26 42 23 42 -21 0 -275
-223 -275 -242 0 -16 25 -7 64 22 22 17 43 30 47 30 4 0 -1 -25 -11 -56 -51
-146 -64 -321 -34 -443 29 -119 79 -207 174 -302 138 -139 217 -179 242 -123
11 23 9 32 -11 68 -62 108 -121 232 -135 281 -26 86 -18 86 17 0 42 -104 95
-184 177 -266 88 -89 177 -146 431 -271 177 -88 231 -120 314 -187 55 -44 105
-81 111 -81 6 0 21 11 33 24 20 21 24 38 28 123 14 253 -56 414 -307 708 -117
136 -170 214 -195 285 -25 70 -18 79 23 33 81 -91 193 -136 380 -153 130 -12
227 -37 314 -81 71 -36 116 -75 175 -152 101 -131 258 -143 384 -30 69 63 99
127 99 213 0 113 -35 169 -316 506 -119 143 -150 187 -192 275 -52 108 -103
176 -183 244 -26 22 -48 48 -48 58 -1 9 8 50 19 90 11 39 23 108 26 152 6 72
4 83 -16 108 -23 29 -35 32 -65 15z m42 -111 c-4 -67 -14 -119 -36 -183 l-30
-89 32 -25 c119 -93 184 -176 236 -300 23 -57 54 -103 128 -190 188 -223 313
-383 339 -435 83 -171 -31 -355 -221 -355 -71 0 -106 18 -156 80 -78 97 -101
117 -177 158 -116 61 -183 82 -307 93 -197 17 -287 46 -363 114 -72 64 -96
126 -97 242 0 51 -3 89 -7 85 -21 -23 -50 -144 -50 -212 0 -148 57 -261 245
-477 169 -195 238 -311 271 -460 16 -73 21 -216 10 -285 l-7 -38 -62 58 c-89
84 -163 130 -400 246 -118 58 -239 126 -276 154 -141 107 -244 253 -285 402
-25 89 -25 290 0 380 24 88 103 250 163 335 110 154 289 318 423 385 45 23 64
40 85 77 81 139 284 347 311 320 4 -4 9 -50 12 -102 l5 -96 46 53 c56 65 153
157 165 158 5 0 7 -41 3 -93z"/>
<path d="M1819 2681 c48 -60 109 -92 186 -99 40 -3 65 -1 65 5 0 6 -10 25 -23
44 -31 48 -103 81 -190 87 l-71 5 33 -42z"/>
<path d="M2470 2063 c0 -10 11 -41 24 -70 24 -51 49 -74 95 -88 23 -7 24 -6
18 30 -8 48 -48 100 -98 125 -36 19 -39 19 -39 3z"/>
</g>
</svg>
